<mxfile host="app.diagrams.net" modified="2022-03-06T23:34:52.552Z" agent="5.0 (Windows NT 10.0; Win64; x64) AppleWebKit/537.36 (KHTML, like Gecko) Chrome/99.0.4844.51 Safari/537.36" etag="eimjCNW1dGUQ7vtP1JNx" version="16.6.6" type="github" pages="4">
  <diagram id="t88UMEQhCyhEQyDJLpoW" name="1. Domínios e Subdomínios">
    <mxGraphModel dx="1422" dy="794" grid="1" gridSize="10" guides="1" tooltips="1" connect="1" arrows="1" fold="1" page="1" pageScale="1" pageWidth="850" pageHeight="1100" math="0" shadow="0">
      <root>
        <mxCell id="0" />
        <mxCell id="1" parent="0" />
        <mxCell id="qLi3mNpBAobcjG5e8nwz-1" value="" style="ellipse;whiteSpace=wrap;html=1;" parent="1" vertex="1">
          <mxGeometry x="30" y="71" width="750" height="480" as="geometry" />
        </mxCell>
        <mxCell id="qLi3mNpBAobcjG5e8nwz-2" value="" style="endArrow=none;dashed=1;html=1;dashPattern=1 3;strokeWidth=2;rounded=0;exitX=-0.003;exitY=0.529;exitDx=0;exitDy=0;exitPerimeter=0;entryX=0.5;entryY=0;entryDx=0;entryDy=0;" parent="1" source="qLi3mNpBAobcjG5e8nwz-1" target="qLi3mNpBAobcjG5e8nwz-1" edge="1">
          <mxGeometry width="50" height="50" relative="1" as="geometry">
            <mxPoint x="400" y="341" as="sourcePoint" />
            <mxPoint x="450" y="291" as="targetPoint" />
            <Array as="points">
              <mxPoint x="330" y="311" />
              <mxPoint x="390" y="241" />
            </Array>
          </mxGeometry>
        </mxCell>
        <mxCell id="qLi3mNpBAobcjG5e8nwz-3" value="Contexto de Cálculo Trabalhista" style="ellipse;whiteSpace=wrap;html=1;" parent="1" vertex="1">
          <mxGeometry x="190" y="181" width="120" height="80" as="geometry" />
        </mxCell>
        <mxCell id="qLi3mNpBAobcjG5e8nwz-4" value="Contexto de Identidade e Acesso" style="ellipse;whiteSpace=wrap;html=1;" parent="1" vertex="1">
          <mxGeometry x="520" y="181" width="120" height="80" as="geometry" />
        </mxCell>
        <mxCell id="qLi3mNpBAobcjG5e8nwz-5" value="Contexto de Marketing" style="ellipse;whiteSpace=wrap;html=1;" parent="1" vertex="1">
          <mxGeometry x="525" y="411" width="120" height="80" as="geometry" />
        </mxCell>
        <mxCell id="qLi3mNpBAobcjG5e8nwz-6" value="Contexto de Envio de Email" style="ellipse;whiteSpace=wrap;html=1;" parent="1" vertex="1">
          <mxGeometry x="340" y="411" width="120" height="80" as="geometry" />
        </mxCell>
        <mxCell id="qLi3mNpBAobcjG5e8nwz-7" value="Contexto de Impostos" style="ellipse;whiteSpace=wrap;html=1;" parent="1" vertex="1">
          <mxGeometry x="150" y="411" width="120" height="80" as="geometry" />
        </mxCell>
        <mxCell id="qLi3mNpBAobcjG5e8nwz-8" value="" style="endArrow=none;dashed=1;html=1;dashPattern=1 3;strokeWidth=2;rounded=0;" parent="1" target="qLi3mNpBAobcjG5e8nwz-1" edge="1">
          <mxGeometry width="50" height="50" relative="1" as="geometry">
            <mxPoint x="410" y="71" as="sourcePoint" />
            <mxPoint x="450" y="261" as="targetPoint" />
          </mxGeometry>
        </mxCell>
        <mxCell id="qLi3mNpBAobcjG5e8nwz-9" value="" style="endArrow=none;dashed=1;html=1;dashPattern=1 3;strokeWidth=2;rounded=0;exitX=0.543;exitY=0.002;exitDx=0;exitDy=0;exitPerimeter=0;" parent="1" source="qLi3mNpBAobcjG5e8nwz-1" target="qLi3mNpBAobcjG5e8nwz-1" edge="1">
          <mxGeometry width="50" height="50" relative="1" as="geometry">
            <mxPoint x="400" y="311" as="sourcePoint" />
            <mxPoint x="450" y="241" as="targetPoint" />
            <Array as="points">
              <mxPoint x="450" y="251" />
              <mxPoint x="510" y="301" />
            </Array>
          </mxGeometry>
        </mxCell>
        <mxCell id="qLi3mNpBAobcjG5e8nwz-10" value="" style="endArrow=none;dashed=1;html=1;dashPattern=1 3;strokeWidth=2;rounded=0;exitX=0.004;exitY=0.569;exitDx=0;exitDy=0;exitPerimeter=0;entryX=1;entryY=0.5;entryDx=0;entryDy=0;" parent="1" source="qLi3mNpBAobcjG5e8nwz-1" target="qLi3mNpBAobcjG5e8nwz-1" edge="1">
          <mxGeometry width="50" height="50" relative="1" as="geometry">
            <mxPoint x="400" y="411" as="sourcePoint" />
            <mxPoint x="450" y="361" as="targetPoint" />
            <Array as="points">
              <mxPoint x="250" y="351" />
              <mxPoint x="430" y="344" />
            </Array>
          </mxGeometry>
        </mxCell>
        <mxCell id="qLi3mNpBAobcjG5e8nwz-11" value="Cálculo trabalhista (básico)" style="text;html=1;strokeColor=none;fillColor=none;align=center;verticalAlign=middle;whiteSpace=wrap;rounded=0;" parent="1" vertex="1">
          <mxGeometry x="195" y="131" width="110" height="30" as="geometry" />
        </mxCell>
        <mxCell id="qLi3mNpBAobcjG5e8nwz-12" value="Identidade e acesso (genérico)" style="text;html=1;strokeColor=none;fillColor=none;align=center;verticalAlign=middle;whiteSpace=wrap;rounded=0;" parent="1" vertex="1">
          <mxGeometry x="525" y="131" width="110" height="30" as="geometry" />
        </mxCell>
        <mxCell id="qLi3mNpBAobcjG5e8nwz-13" value="envio de email&lt;br&gt;(suporte)" style="text;html=1;strokeColor=none;fillColor=none;align=center;verticalAlign=middle;whiteSpace=wrap;rounded=0;" parent="1" vertex="1">
          <mxGeometry x="340" y="361" width="110" height="30" as="geometry" />
        </mxCell>
        <mxCell id="qLi3mNpBAobcjG5e8nwz-14" value="Impostos&lt;br&gt;(suporte)" style="text;html=1;strokeColor=none;fillColor=none;align=center;verticalAlign=middle;whiteSpace=wrap;rounded=0;" parent="1" vertex="1">
          <mxGeometry x="120" y="361" width="110" height="30" as="geometry" />
        </mxCell>
        <mxCell id="qLi3mNpBAobcjG5e8nwz-15" value="usuário&lt;br&gt;(suporte)" style="text;html=1;strokeColor=none;fillColor=none;align=center;verticalAlign=middle;whiteSpace=wrap;rounded=0;" parent="1" vertex="1">
          <mxGeometry x="590" y="361" width="110" height="30" as="geometry" />
        </mxCell>
        <mxCell id="qLi3mNpBAobcjG5e8nwz-17" value="" style="endArrow=none;dashed=1;html=1;dashPattern=1 3;strokeWidth=2;rounded=0;exitX=0.36;exitY=0.979;exitDx=0;exitDy=0;exitPerimeter=0;" parent="1" source="qLi3mNpBAobcjG5e8nwz-1" edge="1">
          <mxGeometry width="50" height="50" relative="1" as="geometry">
            <mxPoint x="400" y="391" as="sourcePoint" />
            <mxPoint x="300" y="351" as="targetPoint" />
          </mxGeometry>
        </mxCell>
        <mxCell id="qLi3mNpBAobcjG5e8nwz-18" value="" style="endArrow=none;dashed=1;html=1;dashPattern=1 3;strokeWidth=2;rounded=0;exitX=0.629;exitY=0.988;exitDx=0;exitDy=0;exitPerimeter=0;" parent="1" source="qLi3mNpBAobcjG5e8nwz-1" edge="1">
          <mxGeometry width="50" height="50" relative="1" as="geometry">
            <mxPoint x="400" y="391" as="sourcePoint" />
            <mxPoint x="490" y="341" as="targetPoint" />
          </mxGeometry>
        </mxCell>
        <mxCell id="qLi3mNpBAobcjG5e8nwz-20" value="" style="endArrow=none;html=1;rounded=0;" parent="1" source="qLi3mNpBAobcjG5e8nwz-5" target="qLi3mNpBAobcjG5e8nwz-4" edge="1">
          <mxGeometry width="50" height="50" relative="1" as="geometry">
            <mxPoint x="400" y="391" as="sourcePoint" />
            <mxPoint x="450" y="341" as="targetPoint" />
          </mxGeometry>
        </mxCell>
        <mxCell id="qLi3mNpBAobcjG5e8nwz-22" value="" style="endArrow=none;html=1;rounded=0;" parent="1" source="qLi3mNpBAobcjG5e8nwz-6" target="qLi3mNpBAobcjG5e8nwz-5" edge="1">
          <mxGeometry width="50" height="50" relative="1" as="geometry">
            <mxPoint x="400" y="391" as="sourcePoint" />
            <mxPoint x="450" y="341" as="targetPoint" />
          </mxGeometry>
        </mxCell>
        <mxCell id="qLi3mNpBAobcjG5e8nwz-23" value="" style="endArrow=none;html=1;rounded=0;" parent="1" source="qLi3mNpBAobcjG5e8nwz-7" target="qLi3mNpBAobcjG5e8nwz-3" edge="1">
          <mxGeometry width="50" height="50" relative="1" as="geometry">
            <mxPoint x="400" y="391" as="sourcePoint" />
            <mxPoint x="450" y="341" as="targetPoint" />
          </mxGeometry>
        </mxCell>
        <mxCell id="qLi3mNpBAobcjG5e8nwz-24" value="" style="endArrow=none;html=1;rounded=0;" parent="1" source="qLi3mNpBAobcjG5e8nwz-4" target="qLi3mNpBAobcjG5e8nwz-3" edge="1">
          <mxGeometry width="50" height="50" relative="1" as="geometry">
            <mxPoint x="400" y="391" as="sourcePoint" />
            <mxPoint x="450" y="341" as="targetPoint" />
          </mxGeometry>
        </mxCell>
      </root>
    </mxGraphModel>
  </diagram>
  <diagram id="eD0-2RThJ-d66q4hw-d1" name="2. Contextos Delimitados e Mapas de Contexto">
    <mxGraphModel dx="1422" dy="794" grid="1" gridSize="10" guides="1" tooltips="1" connect="1" arrows="1" fold="1" page="1" pageScale="1" pageWidth="850" pageHeight="1100" math="0" shadow="0">
      <root>
        <mxCell id="AvqCfXbDtJUDsbHrkvFL-0" />
        <mxCell id="AvqCfXbDtJUDsbHrkvFL-1" parent="AvqCfXbDtJUDsbHrkvFL-0" />
        <mxCell id="kjuWSX7gJH3okGtABT_Q-0" value="Contexto de Cálculo Trabalhista" style="ellipse;whiteSpace=wrap;html=1;" parent="AvqCfXbDtJUDsbHrkvFL-1" vertex="1">
          <mxGeometry x="30" y="562" width="120" height="80" as="geometry" />
        </mxCell>
        <mxCell id="kjuWSX7gJH3okGtABT_Q-1" value="Contexto de Impostos" style="ellipse;whiteSpace=wrap;html=1;" parent="AvqCfXbDtJUDsbHrkvFL-1" vertex="1">
          <mxGeometry x="28" y="762" width="120" height="80" as="geometry" />
        </mxCell>
        <mxCell id="kjuWSX7gJH3okGtABT_Q-2" value="Núcleo Compartilhado" style="endArrow=none;html=1;rounded=0;" parent="AvqCfXbDtJUDsbHrkvFL-1" source="kjuWSX7gJH3okGtABT_Q-0" target="kjuWSX7gJH3okGtABT_Q-1" edge="1">
          <mxGeometry width="50" height="50" relative="1" as="geometry">
            <mxPoint x="330" y="632" as="sourcePoint" />
            <mxPoint x="380" y="582" as="targetPoint" />
          </mxGeometry>
        </mxCell>
        <mxCell id="kjuWSX7gJH3okGtABT_Q-3" value="U" style="text;html=1;strokeColor=none;fillColor=none;align=center;verticalAlign=middle;whiteSpace=wrap;rounded=0;" parent="AvqCfXbDtJUDsbHrkvFL-1" vertex="1">
          <mxGeometry x="76" y="646" width="10" height="10" as="geometry" />
        </mxCell>
        <mxCell id="kjuWSX7gJH3okGtABT_Q-4" value="D" style="text;html=1;strokeColor=none;fillColor=none;align=center;verticalAlign=middle;whiteSpace=wrap;rounded=0;" parent="AvqCfXbDtJUDsbHrkvFL-1" vertex="1">
          <mxGeometry x="75" y="745" width="10" height="10" as="geometry" />
        </mxCell>
        <mxCell id="kjuWSX7gJH3okGtABT_Q-5" value="Contexto de Identidade e Acesso" style="ellipse;whiteSpace=wrap;html=1;" parent="AvqCfXbDtJUDsbHrkvFL-1" vertex="1">
          <mxGeometry x="710" y="560" width="120" height="80" as="geometry" />
        </mxCell>
        <mxCell id="kjuWSX7gJH3okGtABT_Q-6" value="D" style="text;html=1;strokeColor=none;fillColor=none;align=center;verticalAlign=middle;whiteSpace=wrap;rounded=0;" parent="AvqCfXbDtJUDsbHrkvFL-1" vertex="1">
          <mxGeometry x="745" y="715" width="10" height="10" as="geometry" />
        </mxCell>
        <mxCell id="kjuWSX7gJH3okGtABT_Q-7" value="U" style="text;html=1;strokeColor=none;fillColor=none;align=center;verticalAlign=middle;whiteSpace=wrap;rounded=0;" parent="AvqCfXbDtJUDsbHrkvFL-1" vertex="1">
          <mxGeometry x="745" y="664" width="10" height="10" as="geometry" />
        </mxCell>
        <mxCell id="kjuWSX7gJH3okGtABT_Q-8" value="OHS/PL" style="rounded=0;whiteSpace=wrap;html=1;" parent="AvqCfXbDtJUDsbHrkvFL-1" vertex="1">
          <mxGeometry x="745" y="640" width="50" height="20" as="geometry" />
        </mxCell>
        <mxCell id="kjuWSX7gJH3okGtABT_Q-9" value="OHS/PL" style="rounded=0;whiteSpace=wrap;html=1;" parent="AvqCfXbDtJUDsbHrkvFL-1" vertex="1">
          <mxGeometry x="660" y="789" width="50" height="20" as="geometry" />
        </mxCell>
        <mxCell id="kjuWSX7gJH3okGtABT_Q-10" value="Contexto de Marketing" style="ellipse;whiteSpace=wrap;html=1;" parent="AvqCfXbDtJUDsbHrkvFL-1" vertex="1">
          <mxGeometry x="710" y="755" width="120" height="80" as="geometry" />
        </mxCell>
        <mxCell id="kjuWSX7gJH3okGtABT_Q-11" value="Cliente/Fornecedor" style="endArrow=none;html=1;rounded=0;" parent="AvqCfXbDtJUDsbHrkvFL-1" source="kjuWSX7gJH3okGtABT_Q-12" target="kjuWSX7gJH3okGtABT_Q-8" edge="1">
          <mxGeometry width="50" height="50" relative="1" as="geometry">
            <mxPoint x="655" y="720" as="sourcePoint" />
            <mxPoint x="635" y="680" as="targetPoint" />
          </mxGeometry>
        </mxCell>
        <mxCell id="kjuWSX7gJH3okGtABT_Q-12" value="ACL&lt;span style=&quot;color: rgba(0 , 0 , 0 , 0) ; font-family: monospace ; font-size: 0px&quot;&gt;%3CmxGraphModel%3E%3Croot%3E%3CmxCell%20id%3D%220%22%2F%3E%3CmxCell%20id%3D%221%22%20parent%3D%220%22%2F%3E%3CmxCell%20id%3D%222%22%20value%3D%22OHS%2FPL%22%20style%3D%22rounded%3D0%3BwhiteSpace%3Dwrap%3Bhtml%3D1%3B%22%20vertex%3D%221%22%20parent%3D%221%22%3E%3CmxGeometry%20x%3D%22330%22%20y%3D%22600%22%20width%3D%2250%22%20height%3D%2220%22%20as%3D%22geometry%22%2F%3E%3C%2FmxCell%3E%3C%2Froot%3E%3C%2FmxGraphModel%3E&lt;/span&gt;" style="rounded=0;whiteSpace=wrap;html=1;" parent="AvqCfXbDtJUDsbHrkvFL-1" vertex="1">
          <mxGeometry x="745" y="735" width="50" height="20" as="geometry" />
        </mxCell>
        <mxCell id="kjuWSX7gJH3okGtABT_Q-13" value="ACL&lt;span style=&quot;color: rgba(0 , 0 , 0 , 0) ; font-family: monospace ; font-size: 0px&quot;&gt;%3CmxGraphModel%3E%3Croot%3E%3CmxCell%20id%3D%220%22%2F%3E%3CmxCell%20id%3D%221%22%20parent%3D%220%22%2F%3E%3CmxCell%20id%3D%222%22%20value%3D%22OHS%2FPL%22%20style%3D%22rounded%3D0%3BwhiteSpace%3Dwrap%3Bhtml%3D1%3B%22%20vertex%3D%221%22%20parent%3D%221%22%3E%3CmxGeometry%20x%3D%22330%22%20y%3D%22600%22%20width%3D%2250%22%20height%3D%2220%22%20as%3D%22geometry%22%2F%3E%3C%2FmxCell%3E%3C%2Froot%3E%3C%2FmxGraphModel%3E&lt;/span&gt;" style="rounded=0;whiteSpace=wrap;html=1;" parent="AvqCfXbDtJUDsbHrkvFL-1" vertex="1">
          <mxGeometry x="440" y="789" width="50" height="20" as="geometry" />
        </mxCell>
        <mxCell id="kjuWSX7gJH3okGtABT_Q-14" value="Contexto de Envio de Email" style="ellipse;whiteSpace=wrap;html=1;" parent="AvqCfXbDtJUDsbHrkvFL-1" vertex="1">
          <mxGeometry x="320" y="759" width="120" height="80" as="geometry" />
        </mxCell>
        <mxCell id="kjuWSX7gJH3okGtABT_Q-15" value="ACL&lt;span style=&quot;color: rgba(0 , 0 , 0 , 0) ; font-family: monospace ; font-size: 0px&quot;&gt;%3CmxGraphModel%3E%3Croot%3E%3CmxCell%20id%3D%220%22%2F%3E%3CmxCell%20id%3D%221%22%20parent%3D%220%22%2F%3E%3CmxCell%20id%3D%222%22%20value%3D%22OHS%2FPL%22%20style%3D%22rounded%3D0%3BwhiteSpace%3Dwrap%3Bhtml%3D1%3B%22%20vertex%3D%221%22%20parent%3D%221%22%3E%3CmxGeometry%20x%3D%22330%22%20y%3D%22600%22%20width%3D%2250%22%20height%3D%2220%22%20as%3D%22geometry%22%2F%3E%3C%2FmxCell%3E%3C%2Froot%3E%3C%2FmxGraphModel%3E&lt;/span&gt;" style="rounded=0;whiteSpace=wrap;html=1;" parent="AvqCfXbDtJUDsbHrkvFL-1" vertex="1">
          <mxGeometry x="660" y="591" width="50" height="20" as="geometry" />
        </mxCell>
        <mxCell id="kjuWSX7gJH3okGtABT_Q-16" value="" style="endArrow=none;html=1;rounded=0;entryX=0;entryY=0.5;entryDx=0;entryDy=0;" parent="AvqCfXbDtJUDsbHrkvFL-1" source="kjuWSX7gJH3okGtABT_Q-13" target="kjuWSX7gJH3okGtABT_Q-9" edge="1">
          <mxGeometry width="50" height="50" relative="1" as="geometry">
            <mxPoint x="430" y="780" as="sourcePoint" />
            <mxPoint x="480" y="730" as="targetPoint" />
          </mxGeometry>
        </mxCell>
        <mxCell id="kjuWSX7gJH3okGtABT_Q-17" value="U" style="text;html=1;strokeColor=none;fillColor=none;align=center;verticalAlign=middle;whiteSpace=wrap;rounded=0;" parent="AvqCfXbDtJUDsbHrkvFL-1" vertex="1">
          <mxGeometry x="643" y="774" width="10" height="10" as="geometry" />
        </mxCell>
        <mxCell id="kjuWSX7gJH3okGtABT_Q-18" value="D" style="text;html=1;strokeColor=none;fillColor=none;align=center;verticalAlign=middle;whiteSpace=wrap;rounded=0;" parent="AvqCfXbDtJUDsbHrkvFL-1" vertex="1">
          <mxGeometry x="494" y="775" width="10" height="10" as="geometry" />
        </mxCell>
        <mxCell id="kjuWSX7gJH3okGtABT_Q-19" value="ACL&lt;span style=&quot;color: rgba(0 , 0 , 0 , 0) ; font-family: monospace ; font-size: 0px&quot;&gt;%3CmxGraphModel%3E%3Croot%3E%3CmxCell%20id%3D%220%22%2F%3E%3CmxCell%20id%3D%221%22%20parent%3D%220%22%2F%3E%3CmxCell%20id%3D%222%22%20value%3D%22OHS%2FPL%22%20style%3D%22rounded%3D0%3BwhiteSpace%3Dwrap%3Bhtml%3D1%3B%22%20vertex%3D%221%22%20parent%3D%221%22%3E%3CmxGeometry%20x%3D%22330%22%20y%3D%22600%22%20width%3D%2250%22%20height%3D%2220%22%20as%3D%22geometry%22%2F%3E%3C%2FmxCell%3E%3C%2Froot%3E%3C%2FmxGraphModel%3E&lt;/span&gt;" style="rounded=0;whiteSpace=wrap;html=1;" parent="AvqCfXbDtJUDsbHrkvFL-1" vertex="1">
          <mxGeometry x="150" y="592" width="50" height="20" as="geometry" />
        </mxCell>
        <mxCell id="kjuWSX7gJH3okGtABT_Q-20" value="" style="endArrow=none;html=1;rounded=0;entryX=1;entryY=0.5;entryDx=0;entryDy=0;exitX=0;exitY=0.5;exitDx=0;exitDy=0;" parent="AvqCfXbDtJUDsbHrkvFL-1" source="kjuWSX7gJH3okGtABT_Q-15" target="kjuWSX7gJH3okGtABT_Q-19" edge="1">
          <mxGeometry width="50" height="50" relative="1" as="geometry">
            <mxPoint x="650" y="601" as="sourcePoint" />
            <mxPoint x="480" y="730" as="targetPoint" />
          </mxGeometry>
        </mxCell>
        <mxCell id="kjuWSX7gJH3okGtABT_Q-21" value="D" style="text;html=1;strokeColor=none;fillColor=none;align=center;verticalAlign=middle;whiteSpace=wrap;rounded=0;" parent="AvqCfXbDtJUDsbHrkvFL-1" vertex="1">
          <mxGeometry x="630" y="581" width="10" height="10" as="geometry" />
        </mxCell>
        <mxCell id="kjuWSX7gJH3okGtABT_Q-22" value="U" style="text;html=1;strokeColor=none;fillColor=none;align=center;verticalAlign=middle;whiteSpace=wrap;rounded=0;" parent="AvqCfXbDtJUDsbHrkvFL-1" vertex="1">
          <mxGeometry x="208" y="579" width="10" height="10" as="geometry" />
        </mxCell>
      </root>
    </mxGraphModel>
  </diagram>
  <diagram id="rcu4bpIgAO0GCw7JeI-L" name="3. Modelo de Domínio">
    <mxGraphModel dx="1673" dy="934" grid="1" gridSize="10" guides="1" tooltips="1" connect="1" arrows="1" fold="1" page="1" pageScale="1" pageWidth="850" pageHeight="1100" math="0" shadow="0">
      <root>
        <mxCell id="AP4ki9wC5tBI7qsM7Esw-0" />
        <mxCell id="AP4ki9wC5tBI7qsM7Esw-1" parent="AP4ki9wC5tBI7qsM7Esw-0" />
        <mxCell id="bxgJnKX1Aby8v_nInOYI-0" value="INSS" style="swimlane;fontStyle=0;childLayout=stackLayout;horizontal=1;startSize=30;horizontalStack=0;resizeParent=1;resizeParentMax=0;resizeLast=0;collapsible=1;marginBottom=0;" parent="AP4ki9wC5tBI7qsM7Esw-1" vertex="1">
          <mxGeometry x="130" y="860" width="160" height="90" as="geometry" />
        </mxCell>
        <mxCell id="bxgJnKX1Aby8v_nInOYI-1" value="- aliquota: AliquotaINSS" style="text;strokeColor=none;fillColor=none;align=left;verticalAlign=middle;spacingLeft=4;spacingRight=4;overflow=hidden;points=[[0,0.5],[1,0.5]];portConstraint=eastwest;rotatable=0;" parent="bxgJnKX1Aby8v_nInOYI-0" vertex="1">
          <mxGeometry y="30" width="160" height="30" as="geometry" />
        </mxCell>
        <mxCell id="bxgJnKX1Aby8v_nInOYI-2" value="- categortia: CategoriaINSS" style="text;strokeColor=none;fillColor=none;align=left;verticalAlign=middle;spacingLeft=4;spacingRight=4;overflow=hidden;points=[[0,0.5],[1,0.5]];portConstraint=eastwest;rotatable=0;" parent="bxgJnKX1Aby8v_nInOYI-0" vertex="1">
          <mxGeometry y="60" width="160" height="30" as="geometry" />
        </mxCell>
        <mxCell id="bxgJnKX1Aby8v_nInOYI-4" value="Aliquota INSS" style="swimlane;fontStyle=0;childLayout=stackLayout;horizontal=1;startSize=30;horizontalStack=0;resizeParent=1;resizeParentMax=0;resizeLast=0;collapsible=1;marginBottom=0;" parent="AP4ki9wC5tBI7qsM7Esw-1" vertex="1">
          <mxGeometry x="20" y="1030" width="160" height="60" as="geometry" />
        </mxCell>
        <mxCell id="bxgJnKX1Aby8v_nInOYI-5" value="- aliquota: int" style="text;strokeColor=none;fillColor=none;align=left;verticalAlign=middle;spacingLeft=4;spacingRight=4;overflow=hidden;points=[[0,0.5],[1,0.5]];portConstraint=eastwest;rotatable=0;" parent="bxgJnKX1Aby8v_nInOYI-4" vertex="1">
          <mxGeometry y="30" width="160" height="30" as="geometry" />
        </mxCell>
        <mxCell id="bxgJnKX1Aby8v_nInOYI-9" value="Categoria INSS" style="swimlane;fontStyle=0;childLayout=stackLayout;horizontal=1;startSize=30;horizontalStack=0;resizeParent=1;resizeParentMax=0;resizeLast=0;collapsible=1;marginBottom=0;" parent="AP4ki9wC5tBI7qsM7Esw-1" vertex="1">
          <mxGeometry x="240" y="1030" width="160" height="60" as="geometry" />
        </mxCell>
        <mxCell id="bxgJnKX1Aby8v_nInOYI-12" value="- categortia: int[]" style="text;strokeColor=none;fillColor=none;align=left;verticalAlign=middle;spacingLeft=4;spacingRight=4;overflow=hidden;points=[[0,0.5],[1,0.5]];portConstraint=eastwest;rotatable=0;" parent="bxgJnKX1Aby8v_nInOYI-9" vertex="1">
          <mxGeometry y="30" width="160" height="30" as="geometry" />
        </mxCell>
        <mxCell id="bxgJnKX1Aby8v_nInOYI-16" value="IRRF" style="swimlane;fontStyle=0;childLayout=stackLayout;horizontal=1;startSize=30;horizontalStack=0;resizeParent=1;resizeParentMax=0;resizeLast=0;collapsible=1;marginBottom=0;" parent="AP4ki9wC5tBI7qsM7Esw-1" vertex="1">
          <mxGeometry x="580" y="860" width="160" height="90" as="geometry" />
        </mxCell>
        <mxCell id="bxgJnKX1Aby8v_nInOYI-17" value="- aliquota: AliquotaIRRF" style="text;strokeColor=none;fillColor=none;align=left;verticalAlign=middle;spacingLeft=4;spacingRight=4;overflow=hidden;points=[[0,0.5],[1,0.5]];portConstraint=eastwest;rotatable=0;" parent="bxgJnKX1Aby8v_nInOYI-16" vertex="1">
          <mxGeometry y="30" width="160" height="30" as="geometry" />
        </mxCell>
        <mxCell id="bxgJnKX1Aby8v_nInOYI-18" value="- categortia: CategoriaIRRF" style="text;strokeColor=none;fillColor=none;align=left;verticalAlign=middle;spacingLeft=4;spacingRight=4;overflow=hidden;points=[[0,0.5],[1,0.5]];portConstraint=eastwest;rotatable=0;" parent="bxgJnKX1Aby8v_nInOYI-16" vertex="1">
          <mxGeometry y="60" width="160" height="30" as="geometry" />
        </mxCell>
        <mxCell id="bxgJnKX1Aby8v_nInOYI-19" value="Aliquota IRRF" style="swimlane;fontStyle=0;childLayout=stackLayout;horizontal=1;startSize=30;horizontalStack=0;resizeParent=1;resizeParentMax=0;resizeLast=0;collapsible=1;marginBottom=0;" parent="AP4ki9wC5tBI7qsM7Esw-1" vertex="1">
          <mxGeometry x="470" y="1030" width="160" height="60" as="geometry" />
        </mxCell>
        <mxCell id="bxgJnKX1Aby8v_nInOYI-20" value="- aliquota: int" style="text;strokeColor=none;fillColor=none;align=left;verticalAlign=middle;spacingLeft=4;spacingRight=4;overflow=hidden;points=[[0,0.5],[1,0.5]];portConstraint=eastwest;rotatable=0;" parent="bxgJnKX1Aby8v_nInOYI-19" vertex="1">
          <mxGeometry y="30" width="160" height="30" as="geometry" />
        </mxCell>
        <mxCell id="bxgJnKX1Aby8v_nInOYI-21" value="Categoria IRRF" style="swimlane;fontStyle=0;childLayout=stackLayout;horizontal=1;startSize=30;horizontalStack=0;resizeParent=1;resizeParentMax=0;resizeLast=0;collapsible=1;marginBottom=0;" parent="AP4ki9wC5tBI7qsM7Esw-1" vertex="1">
          <mxGeometry x="690" y="1030" width="160" height="60" as="geometry" />
        </mxCell>
        <mxCell id="bxgJnKX1Aby8v_nInOYI-22" value="- categortia: int[]" style="text;strokeColor=none;fillColor=none;align=left;verticalAlign=middle;spacingLeft=4;spacingRight=4;overflow=hidden;points=[[0,0.5],[1,0.5]];portConstraint=eastwest;rotatable=0;" parent="bxgJnKX1Aby8v_nInOYI-21" vertex="1">
          <mxGeometry y="30" width="160" height="30" as="geometry" />
        </mxCell>
        <mxCell id="bxgJnKX1Aby8v_nInOYI-23" value="Calcula CLT" style="swimlane;fontStyle=0;childLayout=stackLayout;horizontal=1;startSize=30;horizontalStack=0;resizeParent=1;resizeParentMax=0;resizeLast=0;collapsible=1;marginBottom=0;" parent="AP4ki9wC5tBI7qsM7Esw-1" vertex="1">
          <mxGeometry x="205" y="610" width="140" height="60" as="geometry" />
        </mxCell>
        <mxCell id="bxgJnKX1Aby8v_nInOYI-24" value="- salario: int" style="text;strokeColor=none;fillColor=none;align=left;verticalAlign=middle;spacingLeft=4;spacingRight=4;overflow=hidden;points=[[0,0.5],[1,0.5]];portConstraint=eastwest;rotatable=0;" parent="bxgJnKX1Aby8v_nInOYI-23" vertex="1">
          <mxGeometry y="30" width="140" height="30" as="geometry" />
        </mxCell>
        <mxCell id="bxgJnKX1Aby8v_nInOYI-27" value="Calcula PJ" style="swimlane;fontStyle=0;childLayout=stackLayout;horizontal=1;startSize=30;horizontalStack=0;resizeParent=1;resizeParentMax=0;resizeLast=0;collapsible=1;marginBottom=0;" parent="AP4ki9wC5tBI7qsM7Esw-1" vertex="1">
          <mxGeometry x="405" y="610" width="140" height="60" as="geometry" />
        </mxCell>
        <mxCell id="bxgJnKX1Aby8v_nInOYI-28" value="- salario: int" style="text;strokeColor=none;fillColor=none;align=left;verticalAlign=middle;spacingLeft=4;spacingRight=4;overflow=hidden;points=[[0,0.5],[1,0.5]];portConstraint=eastwest;rotatable=0;" parent="bxgJnKX1Aby8v_nInOYI-27" vertex="1">
          <mxGeometry y="30" width="140" height="30" as="geometry" />
        </mxCell>
        <mxCell id="bxgJnKX1Aby8v_nInOYI-31" value="Dependente" style="swimlane;fontStyle=0;childLayout=stackLayout;horizontal=1;startSize=30;horizontalStack=0;resizeParent=1;resizeParentMax=0;resizeLast=0;collapsible=1;marginBottom=0;" parent="AP4ki9wC5tBI7qsM7Esw-1" vertex="1">
          <mxGeometry x="10" y="540" width="160" height="90" as="geometry" />
        </mxCell>
        <mxCell id="bxgJnKX1Aby8v_nInOYI-32" value="- quantidade: int" style="text;strokeColor=none;fillColor=none;align=left;verticalAlign=middle;spacingLeft=4;spacingRight=4;overflow=hidden;points=[[0,0.5],[1,0.5]];portConstraint=eastwest;rotatable=0;" parent="bxgJnKX1Aby8v_nInOYI-31" vertex="1">
          <mxGeometry y="30" width="160" height="30" as="geometry" />
        </mxCell>
        <mxCell id="bxgJnKX1Aby8v_nInOYI-33" value="- valorPorDependente: int" style="text;strokeColor=none;fillColor=none;align=left;verticalAlign=middle;spacingLeft=4;spacingRight=4;overflow=hidden;points=[[0,0.5],[1,0.5]];portConstraint=eastwest;rotatable=0;" parent="bxgJnKX1Aby8v_nInOYI-31" vertex="1">
          <mxGeometry y="60" width="160" height="30" as="geometry" />
        </mxCell>
        <mxCell id="bxgJnKX1Aby8v_nInOYI-37" value="Email-sender" style="swimlane;fontStyle=0;childLayout=stackLayout;horizontal=1;startSize=30;horizontalStack=0;resizeParent=1;resizeParentMax=0;resizeLast=0;collapsible=1;marginBottom=0;" parent="AP4ki9wC5tBI7qsM7Esw-1" vertex="1">
          <mxGeometry x="1170" y="450" width="140" height="60" as="geometry" />
        </mxCell>
        <mxCell id="bxgJnKX1Aby8v_nInOYI-38" value="- emissor: string" style="text;strokeColor=none;fillColor=none;align=left;verticalAlign=middle;spacingLeft=4;spacingRight=4;overflow=hidden;points=[[0,0.5],[1,0.5]];portConstraint=eastwest;rotatable=0;" parent="bxgJnKX1Aby8v_nInOYI-37" vertex="1">
          <mxGeometry y="30" width="140" height="30" as="geometry" />
        </mxCell>
        <mxCell id="bxgJnKX1Aby8v_nInOYI-45" value="Usuário" style="swimlane;fontStyle=0;childLayout=stackLayout;horizontal=1;startSize=30;horizontalStack=0;resizeParent=1;resizeParentMax=0;resizeLast=0;collapsible=1;marginBottom=0;" parent="AP4ki9wC5tBI7qsM7Esw-1" vertex="1">
          <mxGeometry x="660" y="450" width="140" height="60" as="geometry" />
        </mxCell>
        <mxCell id="Rfryfb2IDTNIZSY4aeS7-3" value="" style="html=1;verticalAlign=bottom;endArrow=block;rounded=0;fontSize=12;" parent="bxgJnKX1Aby8v_nInOYI-45" target="Rfryfb2IDTNIZSY4aeS7-0" edge="1">
          <mxGeometry width="80" relative="1" as="geometry">
            <mxPoint x="10" y="30" as="sourcePoint" />
            <mxPoint x="90" y="30" as="targetPoint" />
          </mxGeometry>
        </mxCell>
        <mxCell id="bxgJnKX1Aby8v_nInOYI-46" value="- nome: string" style="text;strokeColor=none;fillColor=none;align=left;verticalAlign=middle;spacingLeft=4;spacingRight=4;overflow=hidden;points=[[0,0.5],[1,0.5]];portConstraint=eastwest;rotatable=0;" parent="bxgJnKX1Aby8v_nInOYI-45" vertex="1">
          <mxGeometry y="30" width="140" height="30" as="geometry" />
        </mxCell>
        <mxCell id="bxgJnKX1Aby8v_nInOYI-49" value="Despesa" style="swimlane;fontStyle=0;childLayout=stackLayout;horizontal=1;startSize=30;horizontalStack=0;resizeParent=1;resizeParentMax=0;resizeLast=0;collapsible=1;marginBottom=0;" parent="AP4ki9wC5tBI7qsM7Esw-1" vertex="1">
          <mxGeometry x="20" y="435" width="140" height="60" as="geometry" />
        </mxCell>
        <mxCell id="bxgJnKX1Aby8v_nInOYI-50" value="- planoDeSaude: int" style="text;strokeColor=none;fillColor=none;align=left;verticalAlign=middle;spacingLeft=4;spacingRight=4;overflow=hidden;points=[[0,0.5],[1,0.5]];portConstraint=eastwest;rotatable=0;" parent="bxgJnKX1Aby8v_nInOYI-49" vertex="1">
          <mxGeometry y="30" width="140" height="30" as="geometry" />
        </mxCell>
        <mxCell id="bxgJnKX1Aby8v_nInOYI-53" value="Parcela Dedutível" style="swimlane;fontStyle=0;childLayout=stackLayout;horizontal=1;startSize=30;horizontalStack=0;resizeParent=1;resizeParentMax=0;resizeLast=0;collapsible=1;marginBottom=0;" parent="AP4ki9wC5tBI7qsM7Esw-1" vertex="1">
          <mxGeometry x="830" y="870" width="140" height="60" as="geometry" />
        </mxCell>
        <mxCell id="bxgJnKX1Aby8v_nInOYI-54" value="- valorParcela: int" style="text;strokeColor=none;fillColor=none;align=left;verticalAlign=middle;spacingLeft=4;spacingRight=4;overflow=hidden;points=[[0,0.5],[1,0.5]];portConstraint=eastwest;rotatable=0;" parent="bxgJnKX1Aby8v_nInOYI-53" vertex="1">
          <mxGeometry y="30" width="140" height="30" as="geometry" />
        </mxCell>
        <mxCell id="bxgJnKX1Aby8v_nInOYI-55" value="" style="endArrow=block;endSize=16;endFill=0;html=1;rounded=0;entryX=0.305;entryY=1.024;entryDx=0;entryDy=0;entryPerimeter=0;" parent="AP4ki9wC5tBI7qsM7Esw-1" source="bxgJnKX1Aby8v_nInOYI-4" target="bxgJnKX1Aby8v_nInOYI-2" edge="1">
          <mxGeometry width="160" relative="1" as="geometry">
            <mxPoint x="320" y="990" as="sourcePoint" />
            <mxPoint x="90" y="960" as="targetPoint" />
          </mxGeometry>
        </mxCell>
        <mxCell id="bxgJnKX1Aby8v_nInOYI-56" value="" style="endArrow=block;endSize=16;endFill=0;html=1;rounded=0;exitX=0.5;exitY=0;exitDx=0;exitDy=0;entryX=0.717;entryY=0.984;entryDx=0;entryDy=0;entryPerimeter=0;" parent="AP4ki9wC5tBI7qsM7Esw-1" source="bxgJnKX1Aby8v_nInOYI-9" target="bxgJnKX1Aby8v_nInOYI-2" edge="1">
          <mxGeometry width="160" relative="1" as="geometry">
            <mxPoint x="430" y="980" as="sourcePoint" />
            <mxPoint x="100.88000000000011" y="1040.48" as="targetPoint" />
          </mxGeometry>
        </mxCell>
        <mxCell id="bxgJnKX1Aby8v_nInOYI-57" value="" style="endArrow=block;endSize=16;endFill=0;html=1;rounded=0;entryX=0.529;entryY=0.984;entryDx=0;entryDy=0;entryPerimeter=0;exitX=0.5;exitY=0;exitDx=0;exitDy=0;" parent="AP4ki9wC5tBI7qsM7Esw-1" source="bxgJnKX1Aby8v_nInOYI-21" target="bxgJnKX1Aby8v_nInOYI-18" edge="1">
          <mxGeometry x="-0.4145" y="-20" width="160" relative="1" as="geometry">
            <mxPoint x="800" y="1000" as="sourcePoint" />
            <mxPoint x="350" y="1040" as="targetPoint" />
            <mxPoint as="offset" />
          </mxGeometry>
        </mxCell>
        <mxCell id="bxgJnKX1Aby8v_nInOYI-58" value="" style="endArrow=block;endSize=16;endFill=0;html=1;rounded=0;exitX=0.5;exitY=0;exitDx=0;exitDy=0;" parent="AP4ki9wC5tBI7qsM7Esw-1" source="bxgJnKX1Aby8v_nInOYI-19" target="bxgJnKX1Aby8v_nInOYI-18" edge="1">
          <mxGeometry x="-0.1439" y="9" width="160" relative="1" as="geometry">
            <mxPoint x="240" y="960" as="sourcePoint" />
            <mxPoint x="490" y="980" as="targetPoint" />
            <mxPoint y="1" as="offset" />
          </mxGeometry>
        </mxCell>
        <mxCell id="WGEqubTKj8yiouHEgjh3-1" value="" style="endArrow=open;html=1;endSize=12;startArrow=diamondThin;startSize=14;startFill=0;edgeStyle=orthogonalEdgeStyle;rounded=0;entryX=0;entryY=0.25;entryDx=0;entryDy=0;exitX=1;exitY=0.25;exitDx=0;exitDy=0;" parent="AP4ki9wC5tBI7qsM7Esw-1" source="bxgJnKX1Aby8v_nInOYI-45" target="l4u7Elffc0GELnxzknHW-11" edge="1">
          <mxGeometry relative="1" as="geometry">
            <mxPoint x="630" y="570" as="sourcePoint" />
            <mxPoint x="640" y="550" as="targetPoint" />
            <Array as="points">
              <mxPoint x="860" y="465" />
              <mxPoint x="860" y="470" />
            </Array>
          </mxGeometry>
        </mxCell>
        <mxCell id="WGEqubTKj8yiouHEgjh3-2" value="0..n" style="edgeLabel;resizable=0;html=1;align=left;verticalAlign=top;" parent="WGEqubTKj8yiouHEgjh3-1" connectable="0" vertex="1">
          <mxGeometry x="-1" relative="1" as="geometry">
            <mxPoint x="7" y="-30" as="offset" />
          </mxGeometry>
        </mxCell>
        <mxCell id="WGEqubTKj8yiouHEgjh3-3" value="1" style="edgeLabel;resizable=0;html=1;align=right;verticalAlign=top;" parent="WGEqubTKj8yiouHEgjh3-1" connectable="0" vertex="1">
          <mxGeometry x="1" relative="1" as="geometry">
            <mxPoint x="-13" y="2" as="offset" />
          </mxGeometry>
        </mxCell>
        <mxCell id="WGEqubTKj8yiouHEgjh3-5" value="" style="triangle;whiteSpace=wrap;html=1;fillColor=#808080;rotation=-1;" parent="AP4ki9wC5tBI7qsM7Esw-1" vertex="1">
          <mxGeometry x="863" y="431" width="10" height="10" as="geometry" />
        </mxCell>
        <mxCell id="WGEqubTKj8yiouHEgjh3-6" value="Possui" style="text;html=1;align=center;verticalAlign=middle;resizable=0;points=[];autosize=1;strokeColor=none;fillColor=none;strokeWidth=0;fontSize=8;" parent="AP4ki9wC5tBI7qsM7Esw-1" vertex="1">
          <mxGeometry x="850" y="410" width="40" height="20" as="geometry" />
        </mxCell>
        <mxCell id="Rfryfb2IDTNIZSY4aeS7-0" value="Calcula" style="swimlane;fontStyle=0;childLayout=stackLayout;horizontal=1;startSize=30;horizontalStack=0;resizeParent=1;resizeParentMax=0;resizeLast=0;collapsible=1;marginBottom=0;" parent="AP4ki9wC5tBI7qsM7Esw-1" vertex="1">
          <mxGeometry x="360" y="435" width="160" height="90" as="geometry" />
        </mxCell>
        <mxCell id="Rfryfb2IDTNIZSY4aeS7-1" value="- quantidade: int" style="text;strokeColor=none;fillColor=none;align=left;verticalAlign=middle;spacingLeft=4;spacingRight=4;overflow=hidden;points=[[0,0.5],[1,0.5]];portConstraint=eastwest;rotatable=0;" parent="Rfryfb2IDTNIZSY4aeS7-0" vertex="1">
          <mxGeometry y="30" width="160" height="30" as="geometry" />
        </mxCell>
        <mxCell id="Rfryfb2IDTNIZSY4aeS7-2" value="- valorPorDependente: int" style="text;strokeColor=none;fillColor=none;align=left;verticalAlign=middle;spacingLeft=4;spacingRight=4;overflow=hidden;points=[[0,0.5],[1,0.5]];portConstraint=eastwest;rotatable=0;" parent="Rfryfb2IDTNIZSY4aeS7-0" vertex="1">
          <mxGeometry y="60" width="160" height="30" as="geometry" />
        </mxCell>
        <mxCell id="Rfryfb2IDTNIZSY4aeS7-4" value="Realiza" style="text;html=1;align=center;verticalAlign=middle;resizable=0;points=[];autosize=1;strokeColor=none;fillColor=none;strokeWidth=0;fontSize=8;" parent="AP4ki9wC5tBI7qsM7Esw-1" vertex="1">
          <mxGeometry x="590" y="455" width="40" height="20" as="geometry" />
        </mxCell>
        <mxCell id="Rfryfb2IDTNIZSY4aeS7-5" value="" style="triangle;whiteSpace=wrap;html=1;fillColor=#808080;rotation=-180;" parent="AP4ki9wC5tBI7qsM7Esw-1" vertex="1">
          <mxGeometry x="580" y="460" width="10" height="10" as="geometry" />
        </mxCell>
        <mxCell id="wvpLi-dAo30pENNkye1--2" value="" style="triangle;whiteSpace=wrap;html=1;fillColor=#808080;rotation=90;" parent="AP4ki9wC5tBI7qsM7Esw-1" vertex="1">
          <mxGeometry x="204" y="981" width="10" height="10" as="geometry" />
        </mxCell>
        <mxCell id="wvpLi-dAo30pENNkye1--4" value="Tem uma" style="text;html=1;align=center;verticalAlign=middle;resizable=0;points=[];autosize=1;strokeColor=none;fillColor=none;strokeWidth=0;fontSize=8;" parent="AP4ki9wC5tBI7qsM7Esw-1" vertex="1">
          <mxGeometry x="185" y="960" width="50" height="20" as="geometry" />
        </mxCell>
        <mxCell id="wvpLi-dAo30pENNkye1--8" value="" style="triangle;whiteSpace=wrap;html=1;fillColor=#808080;rotation=90;" parent="AP4ki9wC5tBI7qsM7Esw-1" vertex="1">
          <mxGeometry x="170" y="687" width="10" height="10" as="geometry" />
        </mxCell>
        <mxCell id="wvpLi-dAo30pENNkye1--9" value="Possui" style="text;html=1;align=center;verticalAlign=middle;resizable=0;points=[];autosize=1;strokeColor=none;fillColor=none;strokeWidth=0;fontSize=8;" parent="AP4ki9wC5tBI7qsM7Esw-1" vertex="1">
          <mxGeometry x="230" y="670" width="40" height="20" as="geometry" />
        </mxCell>
        <mxCell id="wvpLi-dAo30pENNkye1--10" value="" style="triangle;whiteSpace=wrap;html=1;fillColor=#808080;rotation=90;" parent="AP4ki9wC5tBI7qsM7Esw-1" vertex="1">
          <mxGeometry x="430" y="697.5" width="10" height="10" as="geometry" />
        </mxCell>
        <mxCell id="wvpLi-dAo30pENNkye1--11" value="Possui" style="text;html=1;align=center;verticalAlign=middle;resizable=0;points=[];autosize=1;strokeColor=none;fillColor=none;strokeWidth=0;fontSize=8;" parent="AP4ki9wC5tBI7qsM7Esw-1" vertex="1">
          <mxGeometry x="415" y="676.5" width="40" height="20" as="geometry" />
        </mxCell>
        <mxCell id="l4u7Elffc0GELnxzknHW-0" value="Tem uma" style="text;html=1;align=center;verticalAlign=middle;resizable=0;points=[];autosize=1;strokeColor=none;fillColor=none;strokeWidth=0;fontSize=8;" parent="AP4ki9wC5tBI7qsM7Esw-1" vertex="1">
          <mxGeometry x="630" y="971" width="50" height="20" as="geometry" />
        </mxCell>
        <mxCell id="l4u7Elffc0GELnxzknHW-1" value="" style="triangle;whiteSpace=wrap;html=1;fillColor=#808080;rotation=90;" parent="AP4ki9wC5tBI7qsM7Esw-1" vertex="1">
          <mxGeometry x="650" y="991" width="10" height="10" as="geometry" />
        </mxCell>
        <mxCell id="l4u7Elffc0GELnxzknHW-2" value="" style="endArrow=block;endSize=16;endFill=0;html=1;rounded=0;fontSize=12;exitX=0.5;exitY=0;exitDx=0;exitDy=0;" parent="AP4ki9wC5tBI7qsM7Esw-1" source="bxgJnKX1Aby8v_nInOYI-27" target="Rfryfb2IDTNIZSY4aeS7-2" edge="1">
          <mxGeometry width="160" relative="1" as="geometry">
            <mxPoint x="370" y="570" as="sourcePoint" />
            <mxPoint x="530" y="570" as="targetPoint" />
            <Array as="points" />
          </mxGeometry>
        </mxCell>
        <mxCell id="l4u7Elffc0GELnxzknHW-4" value="" style="endArrow=block;endSize=16;endFill=0;html=1;rounded=0;fontSize=12;exitX=0.445;exitY=0.006;exitDx=0;exitDy=0;exitPerimeter=0;" parent="AP4ki9wC5tBI7qsM7Esw-1" source="bxgJnKX1Aby8v_nInOYI-23" target="Rfryfb2IDTNIZSY4aeS7-2" edge="1">
          <mxGeometry width="160" relative="1" as="geometry">
            <mxPoint x="380" y="579.9999999999998" as="sourcePoint" />
            <mxPoint x="540" y="579.9999999999998" as="targetPoint" />
            <Array as="points" />
          </mxGeometry>
        </mxCell>
        <mxCell id="l4u7Elffc0GELnxzknHW-5" value="" style="endArrow=open;html=1;endSize=12;startArrow=diamondThin;startSize=14;startFill=0;edgeStyle=orthogonalEdgeStyle;rounded=0;fontSize=12;entryX=0.525;entryY=1.024;entryDx=0;entryDy=0;entryPerimeter=0;exitX=0;exitY=0.25;exitDx=0;exitDy=0;" parent="AP4ki9wC5tBI7qsM7Esw-1" source="bxgJnKX1Aby8v_nInOYI-0" target="bxgJnKX1Aby8v_nInOYI-33" edge="1">
          <mxGeometry relative="1" as="geometry">
            <mxPoint x="60" y="750" as="sourcePoint" />
            <mxPoint x="670" y="670" as="targetPoint" />
          </mxGeometry>
        </mxCell>
        <mxCell id="l4u7Elffc0GELnxzknHW-6" value="0..n" style="edgeLabel;resizable=0;html=1;align=left;verticalAlign=top;fontSize=12;strokeWidth=1;fillColor=#FFFFFF;" parent="l4u7Elffc0GELnxzknHW-5" connectable="0" vertex="1">
          <mxGeometry x="-1" relative="1" as="geometry" />
        </mxCell>
        <mxCell id="l4u7Elffc0GELnxzknHW-7" value="1" style="edgeLabel;resizable=0;html=1;align=right;verticalAlign=top;fontSize=12;strokeWidth=1;fillColor=#FFFFFF;" parent="l4u7Elffc0GELnxzknHW-5" connectable="0" vertex="1">
          <mxGeometry x="1" relative="1" as="geometry">
            <mxPoint x="-12" as="offset" />
          </mxGeometry>
        </mxCell>
        <mxCell id="l4u7Elffc0GELnxzknHW-8" value="" style="endArrow=open;html=1;endSize=12;startArrow=diamondThin;startSize=14;startFill=0;edgeStyle=orthogonalEdgeStyle;rounded=0;fontSize=12;exitX=1;exitY=0.25;exitDx=0;exitDy=0;entryX=0;entryY=0.25;entryDx=0;entryDy=0;" parent="AP4ki9wC5tBI7qsM7Esw-1" source="bxgJnKX1Aby8v_nInOYI-16" target="bxgJnKX1Aby8v_nInOYI-53" edge="1">
          <mxGeometry relative="1" as="geometry">
            <mxPoint x="510" y="670" as="sourcePoint" />
            <mxPoint x="670" y="670" as="targetPoint" />
          </mxGeometry>
        </mxCell>
        <mxCell id="l4u7Elffc0GELnxzknHW-9" value="0..n" style="edgeLabel;resizable=0;html=1;align=left;verticalAlign=top;fontSize=12;strokeWidth=1;fillColor=#FFFFFF;" parent="l4u7Elffc0GELnxzknHW-8" connectable="0" vertex="1">
          <mxGeometry x="-1" relative="1" as="geometry" />
        </mxCell>
        <mxCell id="l4u7Elffc0GELnxzknHW-10" value="1" style="edgeLabel;resizable=0;html=1;align=right;verticalAlign=top;fontSize=12;strokeWidth=1;fillColor=#FFFFFF;" parent="l4u7Elffc0GELnxzknHW-8" connectable="0" vertex="1">
          <mxGeometry x="1" relative="1" as="geometry" />
        </mxCell>
        <mxCell id="l4u7Elffc0GELnxzknHW-11" value="Marketing" style="swimlane;fontStyle=0;childLayout=stackLayout;horizontal=1;startSize=30;horizontalStack=0;resizeParent=1;resizeParentMax=0;resizeLast=0;collapsible=1;marginBottom=0;" parent="AP4ki9wC5tBI7qsM7Esw-1" vertex="1">
          <mxGeometry x="920" y="455" width="140" height="60" as="geometry" />
        </mxCell>
        <mxCell id="l4u7Elffc0GELnxzknHW-12" value="- produto: string" style="text;strokeColor=none;fillColor=none;align=left;verticalAlign=middle;spacingLeft=4;spacingRight=4;overflow=hidden;points=[[0,0.5],[1,0.5]];portConstraint=eastwest;rotatable=0;" parent="l4u7Elffc0GELnxzknHW-11" vertex="1">
          <mxGeometry y="30" width="140" height="30" as="geometry" />
        </mxCell>
        <mxCell id="l4u7Elffc0GELnxzknHW-13" value="" style="endArrow=open;html=1;endSize=12;startArrow=diamondThin;startSize=14;startFill=0;edgeStyle=orthogonalEdgeStyle;rounded=0;entryX=0;entryY=0.25;entryDx=0;entryDy=0;" parent="AP4ki9wC5tBI7qsM7Esw-1" source="l4u7Elffc0GELnxzknHW-11" target="bxgJnKX1Aby8v_nInOYI-37" edge="1">
          <mxGeometry relative="1" as="geometry">
            <mxPoint x="1080" y="470" as="sourcePoint" />
            <mxPoint x="750" y="585" as="targetPoint" />
            <Array as="points" />
          </mxGeometry>
        </mxCell>
        <mxCell id="l4u7Elffc0GELnxzknHW-14" value="0..n" style="edgeLabel;resizable=0;html=1;align=left;verticalAlign=top;" parent="l4u7Elffc0GELnxzknHW-13" connectable="0" vertex="1">
          <mxGeometry x="-1" relative="1" as="geometry">
            <mxPoint x="7" y="-30" as="offset" />
          </mxGeometry>
        </mxCell>
        <mxCell id="l4u7Elffc0GELnxzknHW-15" value="1" style="edgeLabel;resizable=0;html=1;align=right;verticalAlign=top;" parent="l4u7Elffc0GELnxzknHW-13" connectable="0" vertex="1">
          <mxGeometry x="1" relative="1" as="geometry">
            <mxPoint x="-13" y="2" as="offset" />
          </mxGeometry>
        </mxCell>
        <mxCell id="l4u7Elffc0GELnxzknHW-16" value="Realiza" style="text;html=1;align=center;verticalAlign=middle;resizable=0;points=[];autosize=1;strokeColor=none;fillColor=none;strokeWidth=0;fontSize=8;" parent="AP4ki9wC5tBI7qsM7Esw-1" vertex="1">
          <mxGeometry x="1100" y="410" width="40" height="20" as="geometry" />
        </mxCell>
        <mxCell id="l4u7Elffc0GELnxzknHW-17" value="" style="triangle;whiteSpace=wrap;html=1;fillColor=#808080;rotation=2;" parent="AP4ki9wC5tBI7qsM7Esw-1" vertex="1">
          <mxGeometry x="1110" y="430" width="10" height="10" as="geometry" />
        </mxCell>
        <mxCell id="l4u7Elffc0GELnxzknHW-18" value="Calcula Cooperado" style="swimlane;fontStyle=0;childLayout=stackLayout;horizontal=1;startSize=30;horizontalStack=0;resizeParent=1;resizeParentMax=0;resizeLast=0;collapsible=1;marginBottom=0;" parent="AP4ki9wC5tBI7qsM7Esw-1" vertex="1">
          <mxGeometry x="615" y="611" width="140" height="60" as="geometry" />
        </mxCell>
        <mxCell id="l4u7Elffc0GELnxzknHW-19" value="- salario: int" style="text;strokeColor=none;fillColor=none;align=left;verticalAlign=middle;spacingLeft=4;spacingRight=4;overflow=hidden;points=[[0,0.5],[1,0.5]];portConstraint=eastwest;rotatable=0;" parent="l4u7Elffc0GELnxzknHW-18" vertex="1">
          <mxGeometry y="30" width="140" height="30" as="geometry" />
        </mxCell>
        <mxCell id="l4u7Elffc0GELnxzknHW-23" value="" style="triangle;whiteSpace=wrap;html=1;fillColor=#808080;rotation=90;" parent="AP4ki9wC5tBI7qsM7Esw-1" vertex="1">
          <mxGeometry x="280" y="687" width="10" height="10" as="geometry" />
        </mxCell>
        <mxCell id="l4u7Elffc0GELnxzknHW-24" value="Possui" style="text;html=1;align=center;verticalAlign=middle;resizable=0;points=[];autosize=1;strokeColor=none;fillColor=none;strokeWidth=0;fontSize=8;" parent="AP4ki9wC5tBI7qsM7Esw-1" vertex="1">
          <mxGeometry x="265" y="670" width="40" height="20" as="geometry" />
        </mxCell>
        <mxCell id="l4u7Elffc0GELnxzknHW-25" value="" style="triangle;whiteSpace=wrap;html=1;fillColor=#808080;rotation=90;" parent="AP4ki9wC5tBI7qsM7Esw-1" vertex="1">
          <mxGeometry x="530" y="692" width="10" height="10" as="geometry" />
        </mxCell>
        <mxCell id="l4u7Elffc0GELnxzknHW-26" value="Possui" style="text;html=1;align=center;verticalAlign=middle;resizable=0;points=[];autosize=1;strokeColor=none;fillColor=none;strokeWidth=0;fontSize=8;" parent="AP4ki9wC5tBI7qsM7Esw-1" vertex="1">
          <mxGeometry x="515" y="671" width="40" height="20" as="geometry" />
        </mxCell>
        <mxCell id="l4u7Elffc0GELnxzknHW-27" value="" style="endArrow=block;endSize=16;endFill=0;html=1;rounded=0;fontSize=12;exitX=0.5;exitY=0;exitDx=0;exitDy=0;entryX=0.849;entryY=1.072;entryDx=0;entryDy=0;entryPerimeter=0;" parent="AP4ki9wC5tBI7qsM7Esw-1" source="l4u7Elffc0GELnxzknHW-18" target="Rfryfb2IDTNIZSY4aeS7-2" edge="1">
          <mxGeometry width="160" relative="1" as="geometry">
            <mxPoint x="560" y="620" as="sourcePoint" />
            <mxPoint x="466.5" y="535" as="targetPoint" />
            <Array as="points" />
          </mxGeometry>
        </mxCell>
        <mxCell id="l4u7Elffc0GELnxzknHW-28" value="Descontos" style="swimlane;fontStyle=0;childLayout=stackLayout;horizontal=1;startSize=30;horizontalStack=0;resizeParent=1;resizeParentMax=0;resizeLast=0;collapsible=1;marginBottom=0;" parent="AP4ki9wC5tBI7qsM7Esw-1" vertex="1">
          <mxGeometry x="380" y="760" width="140" height="60" as="geometry" />
        </mxCell>
        <mxCell id="l4u7Elffc0GELnxzknHW-29" value="- taxa: int" style="text;strokeColor=none;fillColor=none;align=left;verticalAlign=middle;spacingLeft=4;spacingRight=4;overflow=hidden;points=[[0,0.5],[1,0.5]];portConstraint=eastwest;rotatable=0;" parent="l4u7Elffc0GELnxzknHW-28" vertex="1">
          <mxGeometry y="30" width="140" height="30" as="geometry" />
        </mxCell>
        <mxCell id="VP57xZ37ATpAy6gILkJ1-0" value="" style="endArrow=block;endSize=16;endFill=0;html=1;rounded=0;fontSize=12;entryX=0.071;entryY=1;entryDx=0;entryDy=0;entryPerimeter=0;" edge="1" parent="AP4ki9wC5tBI7qsM7Esw-1" source="bxgJnKX1Aby8v_nInOYI-0" target="l4u7Elffc0GELnxzknHW-29">
          <mxGeometry x="0.1147" y="-10" width="160" relative="1" as="geometry">
            <mxPoint x="640" y="710" as="sourcePoint" />
            <mxPoint x="800" y="710" as="targetPoint" />
            <mxPoint as="offset" />
          </mxGeometry>
        </mxCell>
        <mxCell id="VP57xZ37ATpAy6gILkJ1-1" value="" style="endArrow=block;endSize=16;endFill=0;html=1;rounded=0;fontSize=12;exitX=0.063;exitY=0.222;exitDx=0;exitDy=0;exitPerimeter=0;entryX=0.964;entryY=1.067;entryDx=0;entryDy=0;entryPerimeter=0;" edge="1" parent="AP4ki9wC5tBI7qsM7Esw-1" source="bxgJnKX1Aby8v_nInOYI-16" target="l4u7Elffc0GELnxzknHW-29">
          <mxGeometry width="160" relative="1" as="geometry">
            <mxPoint x="640" y="710" as="sourcePoint" />
            <mxPoint x="800" y="710" as="targetPoint" />
            <Array as="points">
              <mxPoint x="550" y="850" />
            </Array>
          </mxGeometry>
        </mxCell>
        <mxCell id="VP57xZ37ATpAy6gILkJ1-12" value="" style="endArrow=open;html=1;endSize=12;startArrow=diamondThin;startSize=14;startFill=0;edgeStyle=orthogonalEdgeStyle;rounded=0;fontSize=12;exitX=0.443;exitY=1;exitDx=0;exitDy=0;exitPerimeter=0;" edge="1" parent="AP4ki9wC5tBI7qsM7Esw-1" source="bxgJnKX1Aby8v_nInOYI-28" target="l4u7Elffc0GELnxzknHW-28">
          <mxGeometry x="-0.028" y="5" relative="1" as="geometry">
            <mxPoint x="640" y="710" as="sourcePoint" />
            <mxPoint x="800" y="710" as="targetPoint" />
            <mxPoint as="offset" />
          </mxGeometry>
        </mxCell>
        <mxCell id="VP57xZ37ATpAy6gILkJ1-13" value="0..n" style="edgeLabel;resizable=0;html=1;align=left;verticalAlign=top;fontSize=12;strokeWidth=1;fillColor=#FFFFFF;" connectable="0" vertex="1" parent="VP57xZ37ATpAy6gILkJ1-12">
          <mxGeometry x="-1" relative="1" as="geometry">
            <mxPoint x="3" as="offset" />
          </mxGeometry>
        </mxCell>
        <mxCell id="VP57xZ37ATpAy6gILkJ1-14" value="1" style="edgeLabel;resizable=0;html=1;align=right;verticalAlign=top;fontSize=12;strokeWidth=1;fillColor=#FFFFFF;" connectable="0" vertex="1" parent="VP57xZ37ATpAy6gILkJ1-12">
          <mxGeometry x="1" relative="1" as="geometry">
            <mxPoint x="20" y="-30" as="offset" />
          </mxGeometry>
        </mxCell>
        <mxCell id="VP57xZ37ATpAy6gILkJ1-15" value="" style="endArrow=open;html=1;endSize=12;startArrow=diamondThin;startSize=14;startFill=0;edgeStyle=orthogonalEdgeStyle;rounded=0;fontSize=12;exitX=0.495;exitY=1;exitDx=0;exitDy=0;exitPerimeter=0;entryX=0.921;entryY=-0.022;entryDx=0;entryDy=0;entryPerimeter=0;" edge="1" parent="AP4ki9wC5tBI7qsM7Esw-1" source="l4u7Elffc0GELnxzknHW-19" target="l4u7Elffc0GELnxzknHW-28">
          <mxGeometry x="-0.028" y="5" relative="1" as="geometry">
            <mxPoint x="477.02" y="680" as="sourcePoint" />
            <mxPoint x="460" y="770" as="targetPoint" />
            <mxPoint as="offset" />
          </mxGeometry>
        </mxCell>
        <mxCell id="VP57xZ37ATpAy6gILkJ1-16" value="0..n" style="edgeLabel;resizable=0;html=1;align=left;verticalAlign=top;fontSize=12;strokeWidth=1;fillColor=#FFFFFF;" connectable="0" vertex="1" parent="VP57xZ37ATpAy6gILkJ1-15">
          <mxGeometry x="-1" relative="1" as="geometry">
            <mxPoint x="3" as="offset" />
          </mxGeometry>
        </mxCell>
        <mxCell id="VP57xZ37ATpAy6gILkJ1-17" value="1" style="edgeLabel;resizable=0;html=1;align=right;verticalAlign=top;fontSize=12;strokeWidth=1;fillColor=#FFFFFF;" connectable="0" vertex="1" parent="VP57xZ37ATpAy6gILkJ1-15">
          <mxGeometry x="1" relative="1" as="geometry">
            <mxPoint x="20" y="-30" as="offset" />
          </mxGeometry>
        </mxCell>
        <mxCell id="VP57xZ37ATpAy6gILkJ1-18" value="" style="endArrow=open;html=1;endSize=12;startArrow=diamondThin;startSize=14;startFill=0;edgeStyle=orthogonalEdgeStyle;rounded=0;fontSize=12;exitX=0.821;exitY=1;exitDx=0;exitDy=0;exitPerimeter=0;entryX=0.104;entryY=-0.013;entryDx=0;entryDy=0;entryPerimeter=0;" edge="1" parent="AP4ki9wC5tBI7qsM7Esw-1" source="bxgJnKX1Aby8v_nInOYI-24" target="l4u7Elffc0GELnxzknHW-28">
          <mxGeometry x="-0.028" y="5" relative="1" as="geometry">
            <mxPoint x="477.02" y="680" as="sourcePoint" />
            <mxPoint x="460" y="770" as="targetPoint" />
            <mxPoint as="offset" />
          </mxGeometry>
        </mxCell>
        <mxCell id="VP57xZ37ATpAy6gILkJ1-19" value="0..n" style="edgeLabel;resizable=0;html=1;align=left;verticalAlign=top;fontSize=12;strokeWidth=1;fillColor=#FFFFFF;" connectable="0" vertex="1" parent="VP57xZ37ATpAy6gILkJ1-18">
          <mxGeometry x="-1" relative="1" as="geometry">
            <mxPoint x="3" as="offset" />
          </mxGeometry>
        </mxCell>
        <mxCell id="VP57xZ37ATpAy6gILkJ1-20" value="1" style="edgeLabel;resizable=0;html=1;align=right;verticalAlign=top;fontSize=12;strokeWidth=1;fillColor=#FFFFFF;" connectable="0" vertex="1" parent="VP57xZ37ATpAy6gILkJ1-18">
          <mxGeometry x="1" relative="1" as="geometry">
            <mxPoint x="20" y="-30" as="offset" />
          </mxGeometry>
        </mxCell>
        <mxCell id="aO0bucPDbyA0XLW2pJPL-0" value="" style="endArrow=block;endSize=16;endFill=0;html=1;rounded=0;fontSize=12;" edge="1" parent="AP4ki9wC5tBI7qsM7Esw-1" source="bxgJnKX1Aby8v_nInOYI-49" target="Rfryfb2IDTNIZSY4aeS7-0">
          <mxGeometry width="160" relative="1" as="geometry">
            <mxPoint x="277.29999999999995" y="620.3599999999999" as="sourcePoint" />
            <mxPoint x="424.18792347548833" y="534.9999999999998" as="targetPoint" />
            <Array as="points" />
          </mxGeometry>
        </mxCell>
      </root>
    </mxGraphModel>
  </diagram>
  <diagram id="8QhqxNRYsPjh8BstH5U5" name="4. Relação entre o Design Estratégico e o Design Tático">
    <mxGraphModel dx="2523" dy="934" grid="1" gridSize="10" guides="1" tooltips="1" connect="1" arrows="1" fold="1" page="1" pageScale="1" pageWidth="850" pageHeight="1100" math="0" shadow="0">
      <root>
        <mxCell id="9Bo5fRv2GoTBLI3Ak1RW-0" />
        <mxCell id="9Bo5fRv2GoTBLI3Ak1RW-1" parent="9Bo5fRv2GoTBLI3Ak1RW-0" />
        <mxCell id="sDzjDHlL_V4JNKb-ccGc-0" value="" style="ellipse;whiteSpace=wrap;html=1;fontSize=12;strokeWidth=1;fillColor=#FFFFFF;" vertex="1" parent="9Bo5fRv2GoTBLI3Ak1RW-1">
          <mxGeometry x="-425" y="190" width="840" height="490" as="geometry" />
        </mxCell>
        <mxCell id="sDzjDHlL_V4JNKb-ccGc-1" value="Contexto CLT" style="text;html=1;strokeColor=none;fillColor=none;align=center;verticalAlign=middle;whiteSpace=wrap;rounded=0;fontSize=12;" vertex="1" parent="9Bo5fRv2GoTBLI3Ak1RW-1">
          <mxGeometry x="-50" y="220" width="90" height="30" as="geometry" />
        </mxCell>
        <mxCell id="sDzjDHlL_V4JNKb-ccGc-3" value="«entidade»&lt;br&gt;&lt;b&gt;Dependente&lt;/b&gt;" style="html=1;fontSize=12;strokeWidth=1;fillColor=#FFFFFF;" vertex="1" parent="9Bo5fRv2GoTBLI3Ak1RW-1">
          <mxGeometry x="-245" y="490" width="110" height="50" as="geometry" />
        </mxCell>
        <mxCell id="sDzjDHlL_V4JNKb-ccGc-4" value="«objeto de valor»&lt;br&gt;&lt;b&gt;Aliquota IRRF&lt;/b&gt;" style="html=1;fontSize=12;strokeWidth=1;fillColor=#FFFFFF;" vertex="1" parent="9Bo5fRv2GoTBLI3Ak1RW-1">
          <mxGeometry x="190" y="420" width="110" height="50" as="geometry" />
        </mxCell>
        <mxCell id="sDzjDHlL_V4JNKb-ccGc-5" value="«objeto de valor»&lt;br&gt;&lt;b&gt;Categoria INSS&lt;/b&gt;" style="html=1;fontSize=12;strokeWidth=1;fillColor=#FFFFFF;" vertex="1" parent="9Bo5fRv2GoTBLI3Ak1RW-1">
          <mxGeometry x="-320" y="420" width="110" height="50" as="geometry" />
        </mxCell>
        <mxCell id="sDzjDHlL_V4JNKb-ccGc-6" value="«objeto de valor»&lt;br&gt;&lt;b&gt;Aliquota INSS&lt;/b&gt;" style="html=1;fontSize=12;strokeWidth=1;fillColor=#FFFFFF;" vertex="1" parent="9Bo5fRv2GoTBLI3Ak1RW-1">
          <mxGeometry x="-170" y="420" width="110" height="50" as="geometry" />
        </mxCell>
        <mxCell id="sDzjDHlL_V4JNKb-ccGc-7" value="«entidade»&lt;br&gt;&lt;b&gt;Parcela Dedutível&lt;/b&gt;" style="html=1;fontSize=12;strokeWidth=1;fillColor=#FFFFFF;" vertex="1" parent="9Bo5fRv2GoTBLI3Ak1RW-1">
          <mxGeometry x="120" y="490" width="110" height="50" as="geometry" />
        </mxCell>
        <mxCell id="sDzjDHlL_V4JNKb-ccGc-8" value="«entidade»&lt;br&gt;&lt;b&gt;Despesa&lt;/b&gt;" style="html=1;fontSize=12;strokeWidth=1;fillColor=#FFFFFF;" vertex="1" parent="9Bo5fRv2GoTBLI3Ak1RW-1">
          <mxGeometry x="-60" y="560" width="110" height="50" as="geometry" />
        </mxCell>
        <mxCell id="sDzjDHlL_V4JNKb-ccGc-9" value="«entidade»&lt;br&gt;&lt;b&gt;IRRF&lt;/b&gt;" style="html=1;fontSize=12;strokeWidth=1;fillColor=#FFFFFF;" vertex="1" parent="9Bo5fRv2GoTBLI3Ak1RW-1">
          <mxGeometry x="120" y="360" width="110" height="50" as="geometry" />
        </mxCell>
        <mxCell id="sDzjDHlL_V4JNKb-ccGc-10" value="«entidade»&lt;br&gt;&lt;b&gt;INSS&lt;/b&gt;" style="html=1;fontSize=12;strokeWidth=1;fillColor=#FFFFFF;" vertex="1" parent="9Bo5fRv2GoTBLI3Ak1RW-1">
          <mxGeometry x="-245" y="360" width="110" height="50" as="geometry" />
        </mxCell>
        <mxCell id="ukWggAauZm2jK8spa403-0" value="«objeto de valor»&lt;br&gt;&lt;b&gt;Categoria IRRF&lt;/b&gt;" style="html=1;fontSize=12;strokeWidth=1;fillColor=#FFFFFF;" vertex="1" parent="9Bo5fRv2GoTBLI3Ak1RW-1">
          <mxGeometry x="50" y="420" width="110" height="50" as="geometry" />
        </mxCell>
        <mxCell id="9ynOMh6x1AHCRdSekILQ-0" value="«raiz do agregado»&lt;br&gt;&lt;b&gt;Cálculo CLT&lt;/b&gt;" style="html=1;fontSize=12;strokeWidth=1;fillColor=#FFFFFF;" vertex="1" parent="9Bo5fRv2GoTBLI3Ak1RW-1">
          <mxGeometry x="-60" y="260" width="110" height="50" as="geometry" />
        </mxCell>
      </root>
    </mxGraphModel>
  </diagram>
</mxfile>
